<svg width="234" height="234" viewBox="0 0 234 234" fill="none" xmlns="http://www.w3.org/2000/svg">
<path d="M29.9812 58.0064C29.9812 58.0064 18.1898 58.9388 16.6176 61.5895C15.0271 64.2403 14.9357 68.317 14.9357 72.7959C14.9357 77.2931 14.7529 87.6037 14.7529 87.6037L17.5682 93.6548C17.5682 93.6548 18.0984 170.783 18.0984 173.178C18.0984 175.555 18.0984 178.462 21.5353 180.308C24.9721 182.154 112.32 224.348 115.044 225.481C119.157 227.181 121.113 226.541 121.113 226.541L218.168 64.222C218.168 64.222 217.858 59.7797 213.817 58.7194C211.496 58.1344 29.9812 58.0064 29.9812 58.0064Z" fill="#F5B03E"/>
<path d="M120.071 111.369C118.59 115.446 119.267 157.603 119.522 188.26C119.778 218.9 118.736 225.243 119.522 226.304C120.309 227.364 122.447 226.34 128.499 223.653C139.742 218.68 193.744 191.953 197.711 189.577C201.678 187.2 211.367 182.282 212.958 179.632C214.548 176.981 215.408 152.319 215.938 132.521C216.468 112.704 216.998 96.8541 216.998 96.8541L219.375 89.7244C219.375 89.7244 218.863 70.456 218.771 68.3353C218.607 64.8253 218.223 63.0155 217.327 63.4543C216.047 64.0575 205.371 72.8143 177.108 86.5618C159.357 95.1722 121.095 108.554 120.071 111.369Z" fill="#E07F14"/>
<path d="M120.327 20.4933C112.412 20.1277 90.7484 32.6503 69.8712 39.5058C48.9941 46.3613 17.4772 60.1453 17.203 60.9497C16.947 61.7358 29.8901 67.531 38.1533 71.498C47.9703 76.1963 85.4469 93.9474 92.3023 96.8541C99.1761 99.7608 115.556 106.561 118.189 106.36C121.881 106.104 156.762 92.3569 174.458 83.911C192.155 75.465 214.275 62.3756 214.567 59.1947C214.695 57.7688 182.027 45.5752 165.738 38.2078C134.294 23.9667 126.123 20.7675 120.327 20.4933Z" fill="#FDD717"/>
<path d="M14.8445 90.9858C15.1187 94.4227 17.0017 95.6475 21.7914 97.7316C26.5811 99.8156 117.128 146.853 119.212 146.853C121.296 146.853 121.918 139.395 119.633 139.596C118.39 139.705 88.6459 125.574 60.8584 111.461C37.2756 99.5049 14.6982 87.5672 14.6982 87.5672L14.8445 90.9858Z" fill="#E37D14"/>
<path d="M219.393 89.5598C219.393 89.5598 122.704 138.736 121.753 139.212C120.802 139.687 119.285 139.522 119.285 139.522L119.212 146.853C119.212 146.853 120.108 147.054 121.113 146.744C121.698 146.561 216.596 97.439 217.017 97.2928C217.437 97.1465 219.265 96.0497 219.649 93.7279C219.978 91.8632 219.393 89.5598 219.393 89.5598Z" fill="#BA5E0D"/>
<path d="M52.7596 178.096L71.6807 206.249L79.9621 209.083C79.9621 209.083 80.6385 178.37 80.9127 155.61C81.2966 122.356 81.1504 92.0278 81.6257 90.3094C82.4118 87.4026 119.212 75.465 119.212 75.465C119.212 75.465 160.784 88.4995 162.1 91.4062C162.685 92.6859 162.228 114.221 162.1 139.321C161.935 171.021 161.99 207.62 161.99 207.62C161.99 207.62 166.286 207.602 166.798 206.011C167.328 204.421 169.449 192.154 169.449 192.154L185.573 84.6787L193.763 74.1122L182.392 52.4672L135.738 29.5059L119.706 33.1073L102.357 30.4565L47.3301 69.9989L53.7468 83.0151L69.487 91.0406L52.7596 178.096Z" fill="#AF0F1B"/>
<path d="M166.871 90.2911C165.865 92.5031 166.45 206.487 166.45 206.487C166.45 206.487 171.478 203.708 177.949 200.6C184.384 197.511 189.01 195.591 189.412 193.982C189.814 192.374 190.527 79.6514 190.527 79.6514L166.871 90.2911Z" fill="#DC0D28"/>
<path d="M75.5929 87.9328C76.1962 88.5909 75.209 206.871 73.9841 207.145C73.0152 207.382 50.9863 197.547 50.9863 196.542C50.9863 195.536 52.7596 82.5033 52.7596 82.5033C52.7596 82.5033 73.8013 85.9219 75.5929 87.9328ZM119.249 26.0508C113.161 26.0508 106.433 27.7875 104.477 32.888C102.521 37.9884 102.082 45.5752 102.082 51.2423C102.082 56.6719 101.205 70.5656 117.932 70.3462C134.66 70.1269 135.153 63.9295 135.409 50.2552C135.629 38.8477 134.111 33.3084 132.594 30.9319C131.241 28.793 126.744 26.0508 119.249 26.0508Z" fill="#FF2A23"/>
<path d="M109.578 54.277C113.381 54.4964 115.008 46.1418 117.933 41.5715C120.858 37.0195 123.911 33.9665 122.814 31.59C121.918 29.6156 113.966 28.9758 109.67 34.9537C106.653 39.1767 106.123 54.0759 109.578 54.277Z" fill="#FCC9D2"/>
<path d="M134.057 30.0178C134.057 30.0178 139.45 35.5022 140.857 46.2516C142.265 57.001 140.638 65.3555 140.638 65.3555C140.638 65.3555 167.438 64.5511 176.689 66.3244C185.811 68.0977 188.992 72.1195 188.992 75.0445C188.992 77.9695 182.996 80.3278 176.908 79.8891C170.82 79.4503 166.707 79.1213 165.939 80.6569C165.171 82.1925 166.268 84.5691 174.732 85.2089C183.197 85.867 192.977 84.6605 196.012 74.1305C199.046 63.6005 199.156 45.3558 198.078 32.2116C196.999 19.0674 194.622 11.5538 188.736 8.70189C182.539 5.72205 167.018 5.22845 152.356 13.4733C137.695 21.7181 134.057 30.0178 134.057 30.0178Z" fill="#FF2A23"/>
<path d="M164.422 17.5134C162.521 15.0637 156.396 15.1369 153.124 18.9211C149.651 22.943 148.883 38.2444 153.343 39.1219C158.389 40.1091 157.475 31.8459 161.168 26.7455C164.787 21.7547 166.268 19.9083 164.422 17.5134Z" fill="#FCC9D2"/>
<path d="M103.07 30.548C103.07 30.548 82.5399 6.61783 59.0851 6.98346C44.9719 7.20283 41.3888 15.338 40.621 18.7017C39.8532 22.0655 34.0032 55.5202 41.8093 73.6369C49.6154 91.7536 65.8126 87.0553 68.3537 86.4703C71.6077 85.7025 78.5363 83.326 77.8782 80.8214C77.2201 78.3169 54.204 87.3296 53.9846 77.0189C53.7652 66.7083 70.2732 65.6114 77.8782 65.3921C85.4832 65.1727 98.5177 66.9094 98.5177 66.9094C98.5177 66.9094 96.2326 54.4233 97.7499 45.5203C99.2673 36.6174 103.07 30.548 103.07 30.548Z" fill="#FF2A23"/>
<path d="M52.7966 15.667C49.8716 18.7017 48.6651 36.1969 50.5115 44.8805C52.3579 53.564 53.9849 57.2569 57.7874 56.5073C60.9683 55.8675 62.8879 38.8294 64.4052 32.8331C66.0322 26.4347 70.0541 19.634 68.4271 16.6542C65.9408 12.0839 55.8496 12.5044 52.7966 15.667Z" fill="#FCC9D2"/>
</svg>
