<svg width="40" height="38" viewBox="0 0 40 38" fill="none" xmlns="http://www.w3.org/2000/svg">
<path d="M1.17383 17.7238L21.0969 0.432226C21.2498 0.30039 21.4449 0.226562 21.6506 0.226562H26.3176C26.7078 0.226562 26.8871 0.711719 26.5918 0.964844L8.12422 16.9961H38.9844C39.2164 16.9961 39.4062 17.1859 39.4062 17.418V20.582C39.4062 20.8141 39.2164 21.0039 38.9844 21.0039H8.12949L26.5971 37.0352C26.8924 37.2936 26.7131 37.7734 26.3229 37.7734H21.4977C21.3975 37.7734 21.2973 37.7365 21.2234 37.668L1.17383 20.2762C0.991268 20.1174 0.844894 19.9214 0.744587 19.7012C0.644279 19.481 0.592373 19.2419 0.592373 19C0.592373 18.7581 0.644279 18.519 0.744587 18.2988C0.844894 18.0786 0.991268 17.8826 1.17383 17.7238Z" fill="black"/>
</svg>
