<svg width="40" height="38" viewBox="0 0 40 38" fill="none" xmlns="http://www.w3.org/2000/svg">
<path d="M38.8262 17.7238L18.9031 0.432226C18.7502 0.30039 18.5551 0.226562 18.3494 0.226562H13.6824C13.2922 0.226562 13.1129 0.711719 13.4082 0.964844L31.8758 16.9961H1.01562C0.783594 16.9961 0.59375 17.1859 0.59375 17.418V20.582C0.59375 20.8141 0.783594 21.0039 1.01562 21.0039H31.8705L13.4029 37.0352C13.1076 37.2936 13.2869 37.7734 13.6771 37.7734H18.5023C18.6025 37.7734 18.7027 37.7365 18.7766 37.668L38.8262 20.2762C39.0087 20.1174 39.1551 19.9214 39.2554 19.7012C39.3557 19.481 39.4076 19.2419 39.4076 19C39.4076 18.7581 39.3557 18.519 39.2554 18.2988C39.1551 18.0786 39.0087 17.8826 38.8262 17.7238Z" fill="black"/>
</svg>
