<svg width="22" height="22" viewBox="0 0 22 22" fill="none" xmlns="http://www.w3.org/2000/svg">
<path d="M18.7407 3.18212C16.6455 1.13647 13.9683 0 10.9418 0C4.88889 0 0 4.77318 0 10.6828C0 12.6148 0.465609 14.4332 1.51323 16.0242L0 21.5929L5.82011 20.1155C7.44974 21.0247 9.19577 21.4793 11.0582 21.4793C17.1111 21.4793 22 16.7061 22 10.7965C22 7.84165 20.836 5.11412 18.7407 3.18212ZM11.0582 19.5473C9.42857 19.5473 7.79894 19.0927 6.40212 18.2972L6.05291 18.0699L2.56085 18.9791L3.49206 15.6833L3.25926 15.3424C2.32804 13.9786 1.86243 12.2739 1.86243 10.5692C1.86243 5.68236 5.93651 1.70471 10.9418 1.70471C13.3862 1.70471 15.7143 2.61388 17.3439 4.31859C19.0899 6.0233 20.0212 8.18259 20.0212 10.5692C20.1376 15.5697 16.0635 19.5473 11.0582 19.5473ZM16.0635 12.9558C15.8307 12.8421 14.4339 12.1602 14.2011 12.0466C13.9683 11.9329 13.7355 11.9329 13.619 12.1602C13.3862 12.3875 12.9206 13.0694 12.6878 13.1831C12.5714 13.4104 12.3386 13.4104 12.1058 13.2967C11.873 13.1831 10.9418 12.8421 9.89418 11.9329C9.07937 11.2511 8.49736 10.3419 8.38095 10.1146C8.26455 9.8873 8.38095 9.66 8.49736 9.54636C8.61376 9.43271 8.73016 9.31906 8.84656 9.09177C8.96296 8.97812 9.07937 8.86447 9.07937 8.63718C9.19577 8.40989 9.07937 8.29624 9.07937 8.18259C9.07937 8.06894 8.49736 6.81883 8.26455 6.25059C8.03175 5.68235 7.79894 5.796 7.68254 5.796C7.56614 5.796 7.33333 5.796 7.21693 5.796C6.98413 5.796 6.75132 5.90965 6.51852 6.13694C6.28572 6.36424 5.5873 7.04612 5.5873 8.40989C5.5873 9.77365 6.51852 11.0238 6.75132 11.1374C6.86773 11.3647 8.73016 13.9786 11.4074 15.1151C12.1058 15.3424 12.5714 15.5697 12.9206 15.6833C13.619 15.9106 14.2011 15.9106 14.6667 15.7969C15.2487 15.6833 16.2963 15.1151 16.5291 14.5468C16.7619 13.9786 16.7619 13.4104 16.6455 13.2967C16.5291 13.1831 16.2963 13.0694 16.0635 12.9558Z" fill="#5BC272"/>
</svg>
