<svg width="54" height="46" viewBox="0 0 54 46" fill="none" xmlns="http://www.w3.org/2000/svg">
<path d="M51.75 20.75H40.5C39.9033 20.75 39.331 20.9871 38.909 21.409C38.4871 21.831 38.25 22.4033 38.25 23V43.25C38.25 43.8467 38.4871 44.419 38.909 44.841C39.331 45.2629 39.9033 45.5 40.5 45.5H51.75C52.3467 45.5 52.919 45.2629 53.341 44.841C53.7629 44.419 54 43.8467 54 43.25V23C54 22.4033 53.7629 21.831 53.341 21.409C52.919 20.9871 52.3467 20.75 51.75 20.75ZM51.75 41H40.5V25.25H51.75V41ZM45 0.5H4.5C2.0025 0.5 0 2.5025 0 5V32C0 33.1935 0.474106 34.3381 1.31802 35.182C2.16193 36.0259 3.30653 36.5 4.5 36.5H20.25V41H15.75V45.5H33.75V41H29.25V36.5H33.75V32H4.5V5H45V16.25H49.5V5C49.5 3.80653 49.0259 2.66193 48.182 1.81802C47.3381 0.974106 46.1935 0.5 45 0.5Z" fill="black"/>
</svg>
