<svg width="46" height="42" viewBox="0 0 46 42" fill="none" xmlns="http://www.w3.org/2000/svg">
<path d="M24.6873 2.86501C26.9373 1.24501 29.5473 0.43501 32.4948 0.43501C34.1148 0.43501 35.8923 0.86251 37.8273 1.76251C39.7623 2.64001 41.2923 3.67501 42.4173 4.86751C44.7348 7.74751 45.7023 11.1 45.3648 14.925C45.0048 18.75 43.7448 21.7425 41.5623 23.8575L24.4848 40.935C24.0573 41.3625 23.5173 41.565 22.8873 41.565C22.2573 41.565 21.7398 41.3625 21.3123 40.935C21.1045 40.73 20.9413 40.4843 20.8329 40.2133C20.7245 39.9423 20.6732 39.6518 20.6823 39.36C20.6823 38.73 20.8848 38.19 21.3123 37.7625L31.6398 27.435C32.2023 26.94 32.2023 26.4225 31.6398 25.86C31.0773 25.2975 30.5598 25.2975 30.0648 25.86L19.7373 36.1875C19.5291 36.3973 19.2796 36.5616 19.0046 36.67C18.7296 36.7784 18.4352 36.8287 18.1398 36.8175C17.5098 36.8175 16.9923 36.615 16.5648 36.1875C16.357 35.9825 16.1938 35.7368 16.0854 35.4658C15.977 35.1948 15.9257 34.9043 15.9348 34.6125C15.9348 33.9825 16.1373 33.4425 16.5648 33.015L26.8923 22.6875C27.4998 22.125 27.4998 21.5625 26.8923 21C26.3748 20.4375 25.8798 20.4375 25.3173 21L14.9898 31.44C14.7792 31.6465 14.5293 31.8087 14.2549 31.9169C13.9805 32.0251 13.6872 32.0772 13.3923 32.07C12.7623 32.07 12.2223 31.8675 11.7498 31.44C11.2998 31.0125 11.0748 30.495 11.0748 29.865C11.0748 29.235 11.3223 28.6725 11.8173 28.1775L22.1673 17.8275C22.7298 17.265 22.7298 16.7475 22.1673 16.2525C21.6048 15.7575 21.0648 15.7575 20.5698 16.2525L10.1298 26.625C9.6348 27.075 9.1173 27.3225 8.5548 27.3225C7.9248 27.3225 7.3848 27.0975 6.9798 26.625C6.5523 26.175 6.3273 25.635 6.3273 25.005C6.3273 24.375 6.5523 23.8575 6.9798 23.43C13.8648 16.5 18.1173 12.315 19.7373 10.7625L27.7473 18.6825C28.6248 19.515 29.6373 19.9425 30.8748 19.9425C32.4498 19.9425 33.6873 19.3125 34.6098 18.0525C35.2398 17.13 35.4648 16.1175 35.2848 14.9925C35.1048 13.8675 34.6323 12.9225 33.8673 12.135L24.6873 2.86501ZM29.3223 17.1075L19.7373 7.50001L3.8073 23.43C1.9173 21.5175 0.837302 18.5925 0.589802 14.61C0.342302 10.65 1.4223 7.20751 3.8073 4.32751C6.4848 1.67251 9.6798 0.32251 13.3923 0.32251C17.1273 0.32251 20.2998 1.67251 22.8873 4.32751L32.4948 13.935C32.9223 14.3625 33.1248 14.88 33.1248 15.51C33.1248 16.14 32.9223 16.68 32.4948 17.1075C32.0673 17.5125 31.5498 17.7375 30.8748 17.7375C30.2673 17.7375 29.7498 17.5125 29.3223 17.1075Z" fill="black"/>
</svg>
