<svg width="54" height="54" viewBox="0 0 54 54" fill="none" xmlns="http://www.w3.org/2000/svg">
<g clip-path="url(#clip0_407_790)">
<path d="M1.15281 26.6769C1.15155 31.214 2.3463 35.6441 4.61809 39.5488L0.935547 52.8901L14.6954 49.3102C18.5012 51.366 22.7653 52.4432 27.0985 52.4435H27.1099C41.4147 52.4435 53.059 40.8936 53.0652 26.6972C53.0679 19.8181 50.3704 13.3494 45.4695 8.48268C40.5694 3.6164 34.0525 0.935024 27.1089 0.931885C12.8025 0.931885 1.15893 12.4812 1.15302 26.6769" fill="url(#paint0_linear_407_790)"/>
<path d="M0.225703 26.6685C0.224227 31.3688 1.4618 35.9573 3.81459 40.0019L0 53.8215L14.2533 50.1133C18.1805 52.2379 22.6022 53.3581 27.1015 53.3597H27.1131C41.931 53.3597 53.9937 41.3943 54 26.6898C54.0025 19.5635 51.208 12.8623 46.132 7.82121C41.0554 2.78079 34.3054 0.00293023 27.1131 0C12.2926 0 0.231609 11.9637 0.225703 26.6685ZM8.71383 39.3053L8.18163 38.467C5.94443 34.9374 4.7636 30.8585 4.76529 26.6701C4.77014 14.4479 14.7947 4.50419 27.1215 4.50419C33.091 4.5067 38.7011 6.81572 42.9207 11.0051C47.1401 15.1949 49.4619 20.7645 49.4604 26.6881C49.4549 38.9103 39.4301 48.8553 27.1131 48.8553H27.1042C23.0936 48.8533 19.1603 47.7846 15.73 45.765L14.9137 45.2846L6.45553 47.485L8.71383 39.3051V39.3053Z" fill="url(#paint1_linear_407_790)"/>
<path d="M20.3931 15.5194C19.8898 14.4094 19.3602 14.387 18.8815 14.3676C18.4896 14.3508 18.0416 14.3521 17.594 14.3521C17.146 14.3521 16.418 14.5193 15.8027 15.1859C15.1868 15.8532 13.4512 17.4657 13.4512 20.7452C13.4512 24.025 15.8586 27.1944 16.1942 27.6396C16.5302 28.084 20.8418 35.0295 27.6703 37.7014C33.3453 39.9219 34.5002 39.4803 35.7319 39.3689C36.9637 39.258 39.7068 37.7569 40.2664 36.2003C40.8264 34.6439 40.8264 33.3098 40.6585 33.031C40.4906 32.7533 40.0426 32.5865 39.3707 32.2533C38.6987 31.9199 35.3958 30.3072 34.7801 30.0847C34.1642 29.8624 33.7164 29.7515 33.2683 30.419C32.8203 31.0854 31.5338 32.5865 31.1417 33.031C30.7499 33.4767 30.3578 33.5321 29.6862 33.1987C29.0139 32.8642 26.8503 32.1612 24.2834 29.8905C22.2863 28.1235 20.938 25.9416 20.5461 25.2741C20.1541 24.6077 20.5041 24.2464 20.8409 23.9143C21.1428 23.6156 21.513 23.1359 21.8492 22.7468C22.1842 22.3575 22.296 22.0797 22.52 21.6352C22.7442 21.1902 22.632 20.8009 22.4643 20.4675C22.296 20.134 20.9905 16.8373 20.3931 15.5194Z" fill="white"/>
</g>
<defs>
<linearGradient id="paint0_linear_407_790" x1="27.0004" y1="52.8901" x2="27.0004" y2="0.931885" gradientUnits="userSpaceOnUse">
<stop stop-color="#1FAF38"/>
<stop offset="1" stop-color="#60D669"/>
</linearGradient>
<linearGradient id="paint1_linear_407_790" x1="27" y1="53.8215" x2="27" y2="0" gradientUnits="userSpaceOnUse">
<stop stop-color="#F9F9F9"/>
<stop offset="1" stop-color="white"/>
</linearGradient>
<clipPath id="clip0_407_790">
<rect width="54" height="54" fill="white"/>
</clipPath>
</defs>
</svg>
