<svg width="35" height="35" viewBox="0 0 35 35" fill="none" xmlns="http://www.w3.org/2000/svg">
<path d="M3.16667 3.16667L2.57459 2.58017L2.5816 2.57326L3.16667 3.16667ZM3.16667 31.8334L2.58017 32.4254L2.57325 32.4184L3.16667 31.8334ZM31.8333 31.8334L32.4255 32.4199L32.4185 32.4269L31.8333 31.8334ZM31.8333 3.16667L32.4198 2.57459L32.4268 2.5816L31.8333 3.16667ZM6.45556 10.9778L5.62239 10.9949C5.61781 10.771 5.70354 10.5546 5.86029 10.3946C6.01704 10.2346 6.23158 10.1445 6.45556 10.1445V10.9778ZM19.0111 24.8445H19.8445C19.8445 25.3047 19.4713 25.6779 19.0111 25.6779V24.8445ZM19.0111 19.8889H18.1778C18.1778 19.6535 18.2773 19.4292 18.4518 19.2712C18.6263 19.1132 18.8595 19.0364 19.0938 19.0597L19.0111 19.8889ZM24.7556 24.8445V25.6779C24.3933 25.6779 24.0726 25.4439 23.9621 25.0989L24.7556 24.8445ZM28.7 24.8445L29.5045 24.627C29.5722 24.8774 29.5195 25.145 29.3618 25.351C29.204 25.557 28.9595 25.6779 28.7 25.6779V24.8445ZM23 17.8889L22.6286 18.635C22.3571 18.4997 22.1803 18.2275 22.1675 17.9244C22.1545 17.6212 22.3075 17.335 22.5666 17.1772L23 17.8889ZM27.8667 10.9667V10.1334C28.117 10.1334 28.354 10.2459 28.5123 10.4398C28.6707 10.6337 28.7333 10.8885 28.6832 11.1337L27.8667 10.9667ZM24.289 10.9667L23.487 10.7403C23.5883 10.3813 23.9158 10.1334 24.289 10.1334V10.9667ZM19.0111 16.4555L19.0995 17.2842C18.8645 17.3094 18.6298 17.2334 18.454 17.0754C18.2781 16.9172 18.1778 16.692 18.1778 16.4555H19.0111ZM19.0111 10.9778V10.1445C19.4713 10.1445 19.8445 10.5176 19.8445 10.9778H19.0111ZM15.4223 10.9778H14.589C14.589 10.5176 14.962 10.1445 15.4223 10.1445V10.9778ZM15.4223 20.5779H16.2556C16.2556 20.8344 16.1373 21.0767 15.9351 21.2347C15.7328 21.3925 15.4691 21.4485 15.2201 21.3862L15.4223 20.5779ZM10.2778 10.9778V10.1445C10.7318 10.1445 11.1022 10.5079 11.111 10.9618L10.2778 10.9778ZM2.31543e-07 16.8334C2.31543e-07 13.0846 -0.0017498 10.1909 0.299034 7.94363C0.603018 5.67238 1.22945 3.93812 2.57459 2.58017L3.75871 3.75312C2.77052 4.75073 2.23032 6.07764 1.95097 8.16473C1.66842 10.2758 1.66667 13.0377 1.66667 16.8334H2.31543e-07ZM2.31543e-07 18.1667V16.8334H1.66667V18.1667H2.31543e-07ZM2.57325 32.4184C1.22942 31.0554 0.603035 29.3196 0.299034 27.048C-0.0017498 24.8009 2.31543e-07 21.91 2.31543e-07 18.1667H1.66667C1.66667 21.9567 1.66842 24.7159 1.95097 26.8271C2.23029 28.9139 2.77059 30.2447 3.76009 31.2484L2.57325 32.4184ZM16.8333 35.0001C13.0846 35.0001 10.1909 35.0019 7.94363 34.7011C5.67236 34.3971 3.93812 33.7706 2.58017 32.4254L3.75312 31.2414C4.75073 32.2296 6.07764 32.7697 8.16473 33.0491C10.2758 33.3316 13.0377 33.3334 16.8333 33.3334V35.0001ZM18.1666 35.0001H16.8333V33.3334H18.1666V35.0001ZM32.4185 32.4269C31.0555 33.7707 29.3195 34.3971 27.0482 34.7011C24.8008 35.0019 21.91 35.0001 18.1666 35.0001V33.3334C21.9568 33.3334 24.716 33.3316 26.827 33.0491C28.914 32.7697 30.2447 32.2294 31.2483 31.2399L32.4185 32.4269ZM35 18.1667C35 21.9155 35.0018 24.8092 34.701 27.0564C34.397 29.3277 33.7707 31.0619 32.4255 32.4199L31.2413 31.2469C32.2295 30.2494 32.7698 28.9224 33.0492 26.8354C33.3317 24.7242 33.3333 21.9624 33.3333 18.1667H35ZM35 16.8334V18.1667H33.3333V16.8334H35ZM32.4268 2.5816C33.7707 3.94464 34.397 5.68058 34.701 7.95196C35.0018 10.1993 35 13.0901 35 16.8334H33.3333C33.3333 13.0433 33.3317 10.2841 33.0492 8.17307C32.7698 6.08611 32.2295 4.75538 31.24 3.75174L32.4268 2.5816ZM18.1666 2.31543e-07C21.9155 2.31543e-07 24.8091 -0.0017498 27.0565 0.299034C29.3277 0.603018 31.0618 1.22944 32.4198 2.57459L31.247 3.75871C30.2493 2.77052 28.9225 2.23032 26.8353 1.95097C24.7243 1.66842 21.9623 1.66667 18.1666 1.66667V2.31543e-07ZM16.8333 2.31543e-07H18.1666V1.66667H16.8333V2.31543e-07ZM2.5816 2.57326C3.94464 1.22942 5.68058 0.603051 7.95196 0.299034C10.1993 -0.0017498 13.0901 2.31543e-07 16.8333 2.31543e-07V1.66667C13.0433 1.66667 10.2841 1.66842 8.17307 1.95097C6.08611 2.23029 4.75538 2.77059 3.75174 3.76009L2.5816 2.57326ZM18.5666 25.6779C14.563 25.6779 11.3342 24.2997 9.09673 21.7054C6.87583 19.1304 5.71386 15.4532 5.62239 10.9949L7.28873 10.9607C7.37505 15.169 8.46862 18.4252 10.3588 20.6169C12.2325 22.7892 14.9705 24.0112 18.5666 24.0112V25.6779ZM18.5778 25.6779H18.5666V24.0112H18.5778V25.6779ZM19.0111 25.6779H18.5778V24.0112H19.0111V25.6779ZM19.8445 19.8889V24.8445H18.1778V19.8889H19.8445ZM23.9621 25.0989C23.1988 22.7187 21.326 20.9569 18.9285 20.7182L19.0938 19.0597C22.274 19.3765 24.6235 21.7035 25.5491 24.59L23.9621 25.0989ZM28.7 25.6779H24.7556V24.0112H28.7V25.6779ZM27.2403 20.2274C28.2975 21.5174 29.0692 23.0169 29.5045 24.627L27.8957 25.062C27.5218 23.6794 26.8591 22.3915 25.9511 21.2839L27.2403 20.2274ZM23.3713 17.1429C24.8645 17.886 26.1832 18.9374 27.2403 20.2274L25.9511 21.2839C25.0433 20.176 23.911 19.2732 22.6286 18.635L23.3713 17.1429ZM26.8367 15.4144C25.9333 16.6992 24.7748 17.7839 23.4335 18.6007L22.5666 17.1772C23.7123 16.4795 24.7016 15.553 25.4731 14.4559L26.8367 15.4144ZM28.6832 11.1337C28.3685 12.6723 27.7398 14.1296 26.8367 15.4144L25.4731 14.4559C26.2446 13.3585 26.7815 12.1139 27.0503 10.7997L28.6832 11.1337ZM24.289 10.1334H27.8667V11.8H24.289V10.1334ZM18.9228 15.627C19.7503 15.5387 20.7045 14.9994 21.575 14.083C22.4345 13.1782 23.1363 11.9823 23.487 10.7403L25.091 11.1931C24.6636 12.7066 23.8211 14.1385 22.7835 15.2309C21.7566 16.3117 20.461 17.139 19.0995 17.2842L18.9228 15.627ZM19.8445 10.9778V16.4555H18.1778V10.9778H19.8445ZM15.4223 10.1445H19.0111V11.8111H15.4223V10.1445ZM14.589 20.5779V10.9778H16.2556V20.5779H14.589ZM11.111 10.9618C11.2288 17.0877 13.8924 19.3364 15.6243 19.7694L15.2201 21.3862C12.5077 20.7082 9.57125 17.579 9.44462 10.9938L11.111 10.9618ZM6.45556 10.1445H10.2778V11.8111H6.45556V10.1445Z" fill="#FAFAFA"/>
</svg>
