<svg width="50" height="50" viewBox="0 0 50 50" fill="none" xmlns="http://www.w3.org/2000/svg">
<path d="M28.0353 50L23.9984 40.5151C27.8867 39.0788 31.5273 37.1471 34.8955 34.8935L28.0353 50ZM9.48543 26.003L0 21.9663L15.1073 15.1065C12.8536 18.4745 10.9219 22.1149 9.48543 26.003ZM43.1178 4.95295C43.8113 4.95295 44.4304 4.95295 44.9505 5.07677C45.3715 8.51907 44.901 15.6018 36.7777 23.7246C32.5675 27.9594 27.5399 31.2036 21.8933 33.3581L16.5685 28.1575C18.847 22.4368 22.0914 17.4096 26.2769 13.2244C33.1123 6.3893 39.2048 4.95295 43.1178 4.95295ZM43.1178 0C38.2141 0 30.7843 1.70877 22.7601 9.73254C17.3363 15.156 14.0919 21.1243 11.9868 26.3497C11.2934 28.207 11.7639 30.2377 13.126 31.6246L18.4012 36.8747C19.3423 37.8157 20.6054 38.3853 21.918 38.3853C22.4876 38.3853 23.082 38.2367 23.6516 38.0139C29.8891 35.6357 35.5526 31.9644 40.2697 27.2412C54.2874 13.2244 49.0369 0.965825 49.0369 0.965825C49.0369 0.965825 46.7832 0 43.1178 0ZM31.5273 18.4745C29.5955 16.5428 29.5955 13.3977 31.5273 11.4661C33.459 9.53442 36.6043 9.53442 38.5361 11.4661C40.4431 13.3977 40.4679 16.5428 38.5361 18.4745C36.6043 20.4061 33.459 20.4061 31.5273 18.4745ZM10.9714 49.5295L19.9863 40.5151C19.1442 40.2922 18.3269 39.9207 17.584 39.4007L7.47937 49.5295H10.9714ZM0.470557 49.5295H3.96258L15.776 37.7415L12.2592 34.2496L0.470557 46.0376V49.5295ZM0.470557 42.521L10.5999 32.417C10.0798 31.6741 9.70832 30.8816 9.48543 30.0149L0.470557 39.0292V42.521Z" fill="black"/>
</svg>
