<svg width="36" height="48" viewBox="0 0 36 48" fill="none" xmlns="http://www.w3.org/2000/svg">
<path d="M18 5C22.95 5 27 9.05 27 14C27 18.725 22.275 26.375 18 31.775C13.725 26.15 9 18.725 9 14C9 9.05 13.05 5 18 5ZM18 0.5C10.575 0.5 4.5 6.575 4.5 14C4.5 24.125 18 38.75 18 38.75C18 38.75 31.5 23.9 31.5 14C31.5 6.575 25.425 0.5 18 0.5ZM18 9.5C15.525 9.5 13.5 11.525 13.5 14C13.5 16.475 15.525 18.5 18 18.5C20.475 18.5 22.5 16.475 22.5 14C22.5 11.525 20.475 9.5 18 9.5ZM36 38.75C36 43.7 27.9 47.75 18 47.75C8.1 47.75 0 43.7 0 38.75C0 35.825 2.7 33.35 6.975 31.55L8.325 33.575C6.075 34.7 4.5 36.05 4.5 37.625C4.5 40.775 10.575 43.25 18 43.25C25.425 43.25 31.5 40.775 31.5 37.625C31.5 36.05 29.925 34.7 27.45 33.575L28.8 31.55C33.3 33.35 36 35.825 36 38.75Z" fill="black"/>
</svg>
