<svg width="54" height="54" viewBox="0 0 54 54" fill="none" xmlns="http://www.w3.org/2000/svg">
<path d="M35.287 0H18.7107C3.58399 0 -0.00195312 3.58594 -0.00195312 18.7127V35.289C-0.00195312 50.4158 3.58399 54.0017 18.7107 54.0017H35.287C50.4138 54.0017 53.9997 50.4158 53.9997 35.289V18.7127C53.9997 3.58594 50.3784 0 35.287 0ZM43.5929 38.5222H39.6729C38.1879 38.5222 37.7305 37.3444 35.0592 34.6376C32.7389 32.3882 31.7112 32.0895 31.1392 32.0895C30.3309 32.0895 30.1014 32.3173 30.1014 33.426V36.9681C30.1014 37.9181 29.8027 38.4885 27.2883 38.4885C23.1303 38.4885 18.5167 35.9741 15.2817 31.2896C10.4032 24.4249 9.06836 19.2831 9.06836 18.2199C9.06836 17.6479 9.29617 17.1129 10.3947 17.1129H14.3232C15.3172 17.1129 15.6952 17.5702 16.0816 18.6334C18.0239 24.2409 21.2589 29.1532 22.5937 29.1532C23.0864 29.1532 23.3142 28.9254 23.3142 27.6682V21.8767C23.164 19.2054 21.7584 18.9759 21.7584 18.0276C21.7584 17.5702 22.1364 17.1129 22.7422 17.1129H28.9201C29.7554 17.1129 30.0625 17.5702 30.0625 18.5541V26.3672C30.0625 27.2109 30.4405 27.5096 30.6684 27.5096C31.1611 27.5096 31.583 27.2109 32.4959 26.2963C35.3174 23.1322 37.339 18.2537 37.339 18.2537C37.6023 17.6816 38.0596 17.1467 39.0535 17.1467H42.982C44.1599 17.1467 44.4232 17.7525 44.1599 18.5963C43.6672 20.8811 38.8595 27.6666 38.8595 27.6666C38.446 28.3517 38.2874 28.6504 38.8595 29.4148C39.2814 29.9869 40.6533 31.1732 41.5662 32.2363C43.2453 34.1432 44.5362 35.7429 44.8805 36.8499C45.2669 37.9485 44.6965 38.5206 43.5879 38.5206L43.5929 38.5222Z" fill="#699BF7"/>
</svg>
