<svg width="25" height="29" viewBox="0 0 25 29" fill="none" xmlns="http://www.w3.org/2000/svg">
<path d="M21.25 4.24136C20.104 2.93078 18.739 1.89166 17.2345 1.1846C15.7301 0.477546 14.1164 0.116707 12.4875 0.123131C5.6625 0.123131 0.1 6.42077 0.1 14.1478C0.1 16.6244 0.675 19.0302 1.75 21.153L0 28.4271L6.5625 26.4742C8.375 27.5922 10.4125 28.1866 12.4875 28.1866C19.3125 28.1866 24.875 21.8889 24.875 14.1619C24.875 10.4116 23.5875 6.88779 21.25 4.24136ZM12.4875 25.809C10.6375 25.809 8.825 25.2429 7.2375 24.1815L6.8625 23.9268L2.9625 25.0873L4 20.7851L3.75 20.3463C2.72218 18.4881 2.17643 16.3403 2.175 14.1478C2.175 7.72276 6.8 2.48652 12.475 2.48652C15.225 2.48652 17.8125 3.70359 19.75 5.9113C20.7094 6.99246 21.4696 8.27845 21.9867 9.69473C22.5039 11.111 22.7675 12.6294 22.7625 14.1619C22.7875 20.5869 18.1625 25.809 12.4875 25.809ZM18.1375 17.0914C17.825 16.9216 16.3 16.0724 16.025 15.9451C15.7375 15.8319 15.5375 15.7752 15.325 16.1149C15.1125 16.4687 14.525 17.2612 14.35 17.4876C14.175 17.7282 13.9875 17.7565 13.675 17.5726C13.3625 17.4027 12.3625 17.0206 11.1875 15.8319C10.2625 14.8978 9.65 13.7515 9.4625 13.3977C9.2875 13.0439 9.4375 12.8599 9.6 12.676C9.7375 12.5203 9.9125 12.2655 10.0625 12.0674C10.2125 11.8693 10.275 11.7136 10.375 11.4872C10.475 11.2466 10.425 11.0485 10.35 10.8787C10.275 10.7088 9.65 8.98229 9.4 8.27469C9.15 7.59539 8.8875 7.6803 8.7 7.66615H8.1C7.8875 7.66615 7.5625 7.75106 7.275 8.10486C7 8.45866 6.2 9.30778 6.2 11.0343C6.2 12.7609 7.3125 14.4308 7.4625 14.6572C7.6125 14.8978 9.65 18.4358 12.75 19.9501C13.4875 20.318 14.0625 20.5303 14.5125 20.686C15.25 20.9549 15.925 20.9124 16.4625 20.8275C17.0625 20.7284 18.3 19.9784 18.55 19.1576C18.8125 18.3368 18.8125 17.6433 18.725 17.4876C18.6375 17.332 18.45 17.2612 18.1375 17.0914Z" fill="#F8F8F8"/>
</svg>
